<?xml version="1.0" encoding="UTF-8"?>
<svg id="Camada_1" data-name="Camada 1" xmlns="http://www.w3.org/2000/svg" xmlns:xlink="http://www.w3.org/1999/xlink" viewBox="0 0 328.02 208.39">
  <defs>
    <style>
      .cls-1 {
        fill: #3c3c3b;
      }

      .cls-2 {
        filter: url(#drop-shadow-1);
      }

      .cls-3 {
        fill: #1d1d1b;
      }

      .cls-4 {
        fill: #fff;
      }

      .cls-5 {
        fill: #191918;
      }

      .cls-6 {
        fill: #3aaa35;
      }
    </style>
    <filter id="drop-shadow-1" x="60.26" y="60.99" width="207" height="78" filterUnits="userSpaceOnUse">
      <feOffset dx="0" dy="0"/>
      <feGaussianBlur result="blur" stdDeviation="5"/>
      <feFlood flood-color="#1d1d1b" flood-opacity=".15"/>
      <feComposite in2="blur" operator="in"/>
      <feComposite in="SourceGraphic"/>
    </filter>
  </defs>
  <rect class="cls-3" x="0" width="328.02" height="208.39" rx="11" ry="11"/>
  <path class="cls-6" d="M10.23,0h187.23s-122.51,208.39-122.51,208.39H10.23c-5.65,0-10.23-4.58-10.23-10.23V10.23C0,4.58,4.58,0,10.23,0Z"/>
  <polygon class="cls-5" points="201.67 0 205.71 0 97.75 208.39 80.54 208.39 201.67 0"/>
  <polygon class="cls-5" points="209.63 0 213.67 0 143.12 208.39 102.02 208.39 209.63 0"/>
  <g>
    <path class="cls-4" d="M30.66,166.25h-.02l-.43,4.1h-1.66l-.86-7.7h1.18l.64,6.07h.02l.57-6.07h1.17l.59,6.12h.02l.62-6.12h1.06l-.86,7.7h-1.61l-.43-4.1Z"/>
    <path class="cls-4" d="M42.58,166.25h-.02l-.43,4.1h-1.66l-.86-7.7h1.18l.64,6.07h.02l.57-6.07h1.17l.59,6.12h.02l.62-6.12h1.06l-.86,7.7h-1.61l-.43-4.1Z"/>
    <path class="cls-4" d="M54.5,166.25h-.02l-.43,4.1h-1.66l-.86-7.7h1.18l.64,6.07h.02l.57-6.07h1.17l.59,6.12h.02l.62-6.12h1.06l-.86,7.7h-1.61l-.43-4.1Z"/>
    <path class="cls-4" d="M64.45,169.19v1.17h-1.17v-1.17h1.17Z"/>
    <path class="cls-4" d="M72.21,168.94h.02l.91-6.28h1.11l-1.19,7.7h-1.8l-1.19-7.7h1.22l.91,6.28Z"/>
    <path class="cls-4" d="M84.19,170.35h-1.22l-.21-1.4h-1.49l-.21,1.4h-1.11l1.23-7.7h1.77l1.23,7.7ZM81.43,167.91h1.17l-.57-3.89h-.02l-.57,3.89Z"/>
    <path class="cls-4" d="M90.47,162.65h1.21v6.6h1.99v1.1h-3.2v-7.7Z"/>
    <path class="cls-4" d="M101.14,165.9h1.66v1.1h-1.66v2.25h2.09v1.1h-3.3v-7.7h3.3v1.1h-2.09v2.14Z"/>
    <path class="cls-4" d="M112.26,168.12h.02l.81-5.47h1.68v7.7h-1.14v-5.52h-.02l-.81,5.52h-1.14l-.88-5.45h-.02v5.45h-1.06v-7.7h1.68l.88,5.47Z"/>
    <path class="cls-4" d="M125.3,170.35h-1.22l-.21-1.4h-1.49l-.21,1.4h-1.11l1.23-7.7h1.77l1.23,7.7ZM122.54,167.91h1.17l-.57-3.89h-.02l-.57,3.89Z"/>
    <path class="cls-4" d="M131.59,162.65h1.21v7.7h-1.21v-7.7Z"/>
    <path class="cls-4" d="M141.03,162.57c1.18,0,1.78.7,1.78,1.94v.24h-1.14v-.32c0-.55-.22-.76-.6-.76s-.61.21-.61.76.24.98,1.03,1.67c1.01.89,1.33,1.53,1.33,2.41,0,1.23-.62,1.94-1.8,1.94s-1.8-.7-1.8-1.94v-.47h1.14v.55c0,.55.24.75.63.75s.63-.2.63-.75-.24-.98-1.03-1.67c-1.01-.89-1.33-1.53-1.33-2.41,0-1.23.61-1.94,1.78-1.94Z"/>
    <path class="cls-4" d="M151.05,168.94h.02l.91-6.28h1.11l-1.19,7.7h-1.8l-1.19-7.7h1.22l.91,6.28Z"/>
    <path class="cls-4" d="M163.02,170.35h-1.22l-.21-1.4h-1.49l-.21,1.4h-1.11l1.23-7.7h1.77l1.23,7.7ZM160.26,167.91h1.17l-.57-3.89h-.02l-.57,3.89Z"/>
    <path class="cls-4" d="M170.41,164.78h-.02v5.58h-1.09v-7.7h1.52l1.22,4.61h.02v-4.61h1.08v7.7h-1.24l-1.49-5.58Z"/>
    <path class="cls-4" d="M179.38,162.65h3.74v1.1h-1.26v6.6h-1.21v-6.6h-1.27v-1.1Z"/>
    <path class="cls-4" d="M192.87,170.35h-1.22l-.21-1.4h-1.49l-.21,1.4h-1.11l1.23-7.7h1.77l1.23,7.7ZM190.11,167.91h1.17l-.57-3.89h-.02l-.57,3.89Z"/>
    <path class="cls-4" d="M200.97,166.06h1.69v2.44c0,1.23-.62,1.94-1.8,1.94s-1.8-.7-1.8-1.94v-4c0-1.23.62-1.94,1.8-1.94s1.8.7,1.8,1.94v.75h-1.14v-.83c0-.55-.24-.76-.63-.76s-.63.21-.63.76v4.16c0,.55.24.75.63.75s.63-.2.63-.75v-1.42h-.55v-1.1Z"/>
    <path class="cls-4" d="M210.38,165.9h1.66v1.1h-1.66v2.25h2.09v1.1h-3.3v-7.7h3.3v1.1h-2.09v2.14Z"/>
    <path class="cls-4" d="M220.04,164.78h-.02v5.58h-1.09v-7.7h1.52l1.22,4.61h.02v-4.61h1.08v7.7h-1.24l-1.49-5.58Z"/>
    <path class="cls-4" d="M231,162.57c1.18,0,1.78.7,1.78,1.94v.24h-1.14v-.32c0-.55-.22-.76-.6-.76s-.61.21-.61.76.24.98,1.03,1.67c1.01.89,1.33,1.53,1.33,2.41,0,1.23-.62,1.94-1.8,1.94s-1.8-.7-1.8-1.94v-.47h1.14v.55c0,.55.24.75.63.75s.63-.2.63-.75-.24-.98-1.03-1.67c-1.01-.89-1.33-1.53-1.33-2.41,0-1.23.61-1.94,1.78-1.94Z"/>
    <path class="cls-4" d="M240.32,169.19v1.17h-1.17v-1.17h1.17Z"/>
    <path class="cls-4" d="M250.32,167.48v1.02c0,1.23-.62,1.94-1.8,1.94s-1.8-.7-1.8-1.94v-4c0-1.23.62-1.94,1.8-1.94s1.8.7,1.8,1.94v.75h-1.14v-.83c0-.55-.24-.76-.63-.76s-.63.21-.63.76v4.16c0,.55.24.75.63.75s.63-.2.63-.75v-1.1h1.14Z"/>
    <path class="cls-4" d="M256.69,164.5c0-1.23.65-1.94,1.84-1.94s1.84.7,1.84,1.94v4c0,1.23-.65,1.94-1.84,1.94s-1.84-.7-1.84-1.94v-4ZM257.9,168.58c0,.55.24.76.63.76s.63-.21.63-.76v-4.16c0-.55-.24-.76-.63-.76s-.63.21-.63.76v4.16Z"/>
    <path class="cls-4" d="M269.42,168.12h.02l.81-5.47h1.68v7.7h-1.14v-5.52h-.02l-.81,5.52h-1.14l-.88-5.45h-.02v5.45h-1.06v-7.7h1.68l.88,5.47Z"/>
    <path class="cls-4" d="M279.72,169.19v1.17h-1.17v-1.17h1.17Z"/>
    <path class="cls-4" d="M289.94,164.43v.27c0,.79-.24,1.29-.78,1.54v.02c.65.25.9.83.9,1.64v.63c0,1.19-.63,1.83-1.84,1.83h-1.9v-7.7h1.83c1.25,0,1.79.58,1.79,1.77ZM287.53,163.75v2.04h.47c.45,0,.73-.2.73-.81v-.43c0-.55-.19-.79-.62-.79h-.58ZM287.53,166.89v2.37h.69c.41,0,.63-.19.63-.76v-.67c0-.71-.23-.94-.78-.94h-.54Z"/>
    <path class="cls-4" d="M299.04,170.35c-.07-.2-.11-.32-.11-.95v-1.21c0-.71-.24-.98-.79-.98h-.42v3.14h-1.21v-7.7h1.83c1.25,0,1.79.58,1.79,1.77v.6c0,.79-.25,1.3-.79,1.55v.02c.61.25.8.83.8,1.63v1.19c0,.37.01.65.13.94h-1.23ZM297.72,163.75v2.37h.47c.45,0,.73-.2.73-.81v-.76c0-.55-.19-.79-.62-.79h-.58Z"/>
  </g>
  <g class="cls-2">
    <g>
      <path class="cls-6" d="M149.81,122.7l-2.03-3.38h.88l1.79,2.99h.32l1.79-2.99h.87l-2.02,3.38c-.13.21-.37.36-.64.36h-.32c-.27,0-.51-.15-.64-.36Z"/>
      <path class="cls-6" d="M164.83,123.06h-.87l-.68-1.12h-2.56l-.68,1.12h-.87l2.02-3.38c.13-.21.37-.36.64-.36h.32c.27,0,.51.15.64.36l2.02,3.38ZM162.84,121.19l-.67-1.12h-.32l-.67,1.12h1.67Z"/>
      <path class="cls-6" d="M176.4,119.32h.75v3.09c0,.36-.3.65-.66.65-.14,0-.29-.05-.39-.14l-3.44-2.75v2.88h-.75v-3.09c0-.36.29-.65.66-.65.14,0,.28.05.4.14l3.43,2.75v-2.88Z"/>
      <path class="cls-6" d="M186.75,123.06v-2.99h-2.24v-.75h5.23v.75h-2.24v2.99h-.75Z"/>
      <path class="cls-6" d="M201.14,123.06h-.87l-.68-1.12h-2.56l-.68,1.12h-.87l2.02-3.38c.13-.21.37-.36.64-.36h.32c.27,0,.51.15.64.36l2.02,3.38ZM199.15,121.19l-.67-1.12h-.32l-.67,1.12h1.67Z"/>
      <path class="cls-6" d="M209.08,119.32h4.11v.75h-4.11c-.2,0-.37.17-.37.37v1.5c0,.2.17.37.37.37h2.99c.2,0,.38-.17.38-.37v-.37h-2.25v-.75h2.99v1.12c0,.61-.5,1.12-1.12,1.12h-2.99c-.61,0-1.12-.51-1.12-1.12v-1.5c0-.62.51-1.12,1.12-1.12Z"/>
      <path class="cls-6" d="M221.66,119.32h4.11v.75h-4.11c-.21,0-.37.17-.37.37v.37h4.49v.75h-4.49v.37c0,.2.17.37.37.37h4.11v.75h-4.11c-.62,0-1.13-.51-1.13-1.12v-1.5c0-.62.51-1.12,1.13-1.12Z"/>
      <path class="cls-6" d="M237.61,119.32h.75v3.09c0,.36-.3.65-.66.65-.14,0-.29-.05-.39-.14l-3.44-2.75v2.88h-.75v-3.09c0-.36.29-.65.66-.65.14,0,.28.05.4.14l3.43,2.75v-2.88Z"/>
      <path class="cls-6" d="M246.46,120.45c0,.21.17.37.37.37h2.99c.62,0,1.12.5,1.12,1.12s-.5,1.12-1.12,1.12h-4.11v-.75h4.11c.2,0,.37-.17.37-.37s-.17-.37-.37-.37h-2.99c-.61,0-1.12-.5-1.12-1.12s.51-1.12,1.12-1.12h4.11v.75h-4.11c-.2,0-.37.17-.37.37Z"/>
    </g>
    <path class="cls-4" d="M94.78,108.43l-18.48-30.73c-.29-.48.06-1.09.61-1.09h6.58c.25,0,.48.13.61.35l16.5,27.45c.13.22.36.35.61.35h2.21c.25,0,.48-.13.61-.35l16.5-27.45c.13-.22.36-.35.61-.35h6.53c.56,0,.9.61.62,1.09l-18.43,30.73c-1.21,2.01-3.47,3.42-6.04,3.42h-3.02c-2.57,0-4.83-1.41-6.04-3.42Z"/>
    <path class="cls-4" d="M165.81,111.85h-6.42c-.26,0-.5-.14-.64-.36l-5.96-9.85c-.14-.22-.38-.36-.64-.36h-23.33c-.26,0-.5.14-.64.36l-5.96,9.85c-.14.22-.38.36-.64.36h-6.42c-.58,0-.94-.63-.64-1.13l18.4-30.69c1.21-2.01,3.47-3.42,6.04-3.42h3.02c2.57,0,4.83,1.41,6.04,3.42l18.4,30.69c.3.5-.06,1.13-.64,1.13ZM147.67,93.1l-5.45-9.08c-.13-.22-.38-.36-.64-.36h-2.18c-.26,0-.5.14-.64.36l-5.45,9.08c-.3.5.06,1.13.64,1.13h13.07c.58,0,.94-.63.64-1.13Z"/>
    <path class="cls-4" d="M168.46,100.62v-23.31c0-.39.32-.71.71-.71h5.63c.39,0,.71.32.71.71v23.26c0,2.3,1.88,4.18,4.18,4.18h11.77c.39,0,.71.32.71.71v5.68c0,.39-.32.71-.71.71h-11.78c-6.18,0-11.23-5.05-11.23-11.23Z"/>
    <path class="cls-4" d="M207.03,76.61h16.62c.39,0,.7.31.7.7v5.65c0,.39-.31.7-.7.7h-17.26c-1.96,0-3.53,1.61-3.53,3.52v2.83c0,.39.31.7.7.7h20.09c.39,0,.7.31.7.7v5.65c0,.39-.31.7-.7.7h-20.09c-.39,0-.7.31-.7.7v2.83c0,1.91,1.56,3.48,3.53,3.48h17.26c.39,0,.7.31.7.7v5.7c0,.39-.31.7-.7.7h-17.26c-5.84,0-10.62-4.78-10.62-10.57v-13.4c0-6.22,5.05-11.27,11.27-11.27Z"/>
    <path class="cls-6" d="M227.8,90.3v-5.4c0-.37.27-.64.64-.64h8.02v-7.01c0-.37.27-.64.64-.64h5.4c.37,0,.64.27.64.64v7.01h8.02c.37,0,.64.27.64.64v5.4c0,.37-.27.64-.64.64h-8.02v6.9c0,.37-.27.64-.64.64h-5.4c-.37,0-.64-.27-.64-.64v-6.9h-8.02c-.37,0-.64-.27-.64-.64Z"/>
    <g>
      <path class="cls-1" d="M236.74,111.85h-8.42v-9.96h8.42c1.26,0,2.29,1.34,2.29,2.99,0,.77-.22,1.45-.58,1.99.36.53.58,1.22.58,1.99,0,1.64-1.03,2.99-2.29,2.99ZM229.85,105.88h6.89c.42,0,.77-.44.77-1s-.35-1-.77-1h-6.89v1.99ZM229.85,109.85h6.89c.42,0,.77-.44.77-.98s-.35-1-.77-1h-6.89v1.98Z"/>
      <path class="cls-1" d="M249.09,108.72l1.6,3.13h-1.84l-1.53-2.99h-5.78v2.99h-1.53v-9.96h8.42c1.27,0,2.29,1.34,2.29,2.99v1c0,1.35-.68,2.49-1.63,2.84ZM249.2,104.88c0-.54-.35-1-.77-1h-6.89v2.99h6.89c.42,0,.77-.44.77-1v-1Z"/>
    </g>
  </g>
</svg>