<?xml version="1.0" encoding="UTF-8"?>
<svg id="Camada_1" data-name="Camada 1" xmlns="http://www.w3.org/2000/svg" viewBox="0 0 623.2 167.54">
  <defs>
    <style>
      .cls-1 {
        fill: #3c3c3b;
      }

      .cls-2 {
        fill: #3aaa35;
      }
    </style>
  </defs>
  <g>
    <path class="cls-2" d="M96.14,165.97l-8.78-14.6h3.79l7.76,12.91h1.39l7.76-12.91h3.77l-8.76,14.6c-.55.92-1.59,1.57-2.77,1.57h-1.39c-1.18,0-2.22-.65-2.77-1.57Z"/>
    <path class="cls-2" d="M161.11,167.54h-3.74l-2.93-4.85h-11.09l-2.93,4.85h-3.74l8.76-14.6c.55-.92,1.59-1.57,2.77-1.57h1.39c1.18,0,2.22.65,2.77,1.57l8.76,14.6ZM152.49,159.46l-2.91-4.85h-1.39l-2.91,4.85h7.21Z"/>
    <path class="cls-2" d="M211.14,151.37h3.26v13.35c-.02,1.55-1.29,2.82-2.84,2.82-.62,0-1.25-.23-1.71-.6l-14.88-11.87v12.47h-3.23v-13.35c0-1.57,1.27-2.82,2.84-2.82.62,0,1.22.21,1.71.6l14.85,11.87v-12.47Z"/>
    <path class="cls-2" d="M255.88,167.54v-12.94h-9.7v-3.23h22.64v3.23h-9.7v12.94h-3.23Z"/>
    <path class="cls-2" d="M318.11,167.54h-3.74l-2.93-4.85h-11.09l-2.93,4.85h-3.74l8.76-14.6c.55-.92,1.59-1.57,2.77-1.57h1.39c1.18,0,2.22.65,2.77,1.57l8.76,14.6ZM309.49,159.46l-2.91-4.85h-1.39l-2.91,4.85h7.21Z"/>
    <path class="cls-2" d="M352.43,151.37h17.79v3.23h-17.79c-.88,0-1.59.74-1.59,1.62v6.47c0,.88.72,1.59,1.59,1.59h12.94c.86,0,1.64-.72,1.64-1.59v-1.62h-9.73v-3.23h12.94v4.85c0,2.66-2.17,4.85-4.85,4.85h-12.94c-2.66,0-4.85-2.19-4.85-4.85v-6.47c0-2.68,2.2-4.85,4.85-4.85Z"/>
    <path class="cls-2" d="M406.88,151.37h17.79v3.23h-17.79c-.9,0-1.62.74-1.62,1.62v1.62h19.41v3.23h-19.41v1.62c0,.88.72,1.59,1.62,1.59h17.79v3.26h-17.79c-2.68,0-4.87-2.19-4.87-4.85v-6.47c0-2.68,2.19-4.85,4.87-4.85Z"/>
    <path class="cls-2" d="M475.85,151.37h3.26v13.35c-.02,1.55-1.29,2.82-2.84,2.82-.62,0-1.25-.23-1.71-.6l-14.88-11.87v12.47h-3.23v-13.35c0-1.57,1.27-2.82,2.84-2.82.62,0,1.22.21,1.71.6l14.85,11.87v-12.47Z"/>
    <path class="cls-2" d="M514.12,156.22c0,.9.74,1.62,1.62,1.62h12.94c2.68,0,4.85,2.17,4.85,4.85s-2.17,4.85-4.85,4.85h-17.79v-3.26h17.79c.88,0,1.62-.72,1.62-1.59s-.74-1.62-1.62-1.62h-12.94c-2.66,0-4.85-2.17-4.85-4.85s2.19-4.85,4.85-4.85h17.79v3.23h-17.79c-.88,0-1.62.74-1.62,1.62Z"/>
  </g>
  <g>
    <path class="cls-1" d="M65.18,111.61L.36,3.81C-.64,2.14.56,0,2.52,0h23.09c.88,0,1.7.46,2.16,1.22l57.87,96.28c.45.76,1.27,1.22,2.16,1.22h7.75c.88,0,1.7-.46,2.16-1.22L155.56,1.22c.45-.76,1.27-1.22,2.16-1.22h22.92c1.95,0,3.16,2.13,2.16,3.81l-64.64,107.8c-4.24,7.06-12.18,12.01-21.19,12.01h-10.6c-9.01,0-16.95-4.94-21.19-12.01Z"/>
    <path class="cls-1" d="M314.31,123.61h-22.51c-.92,0-1.76-.48-2.24-1.26l-20.9-34.56c-.47-.78-1.32-1.26-2.24-1.26h-81.81c-.92,0-1.76.48-2.24,1.26l-20.9,34.56c-.47.78-1.32,1.26-2.24,1.26h-22.51c-2.03,0-3.29-2.22-2.24-3.96L199.03,12.01c4.24-7.06,12.18-12.01,21.19-12.01h10.6c9,0,16.95,4.94,21.19,12.01l64.55,107.64c1.05,1.74-.21,3.96-2.24,3.96ZM250.69,57.85l-19.11-31.85c-.47-.79-1.32-1.27-2.24-1.27h-7.63c-.92,0-1.77.48-2.24,1.27l-19.11,31.85c-1.05,1.74.21,3.96,2.24,3.96h45.86c2.03,0,3.29-2.22,2.24-3.96Z"/>
    <path class="cls-1" d="M323.6,84.23V2.48c0-1.37,1.11-2.48,2.48-2.48h19.76c1.37,0,2.48,1.11,2.48,2.48v81.57c0,8.07,6.6,14.67,14.67,14.67h41.3c1.37,0,2.48,1.11,2.48,2.48v19.94c0,1.37-1.11,2.48-2.48,2.48h-41.3c-21.66,0-39.39-17.72-39.39-39.39Z"/>
    <path class="cls-1" d="M458.86,0h58.28c1.35,0,2.45,1.1,2.45,2.45v19.83c0,1.35-1.1,2.45-2.45,2.45h-60.55c-6.89,0-12.36,5.65-12.36,12.36v9.92c0,1.35,1.1,2.45,2.45,2.45h70.47c1.35,0,2.45,1.1,2.45,2.45v19.83c0,1.35-1.1,2.45-2.45,2.45h-70.47c-1.35,0-2.45,1.1-2.45,2.45v9.91c0,6.71,5.48,12.19,12.36,12.19h60.55c1.35,0,2.45,1.1,2.45,2.45v20c0,1.35-1.1,2.45-2.45,2.45h-60.55c-20.48,0-37.26-16.78-37.26-37.09v-47c0-21.83,17.7-39.53,39.53-39.53Z"/>
    <path class="cls-2" d="M538.97,72.03v-18.94c0-1.31.94-2.25,2.25-2.25h28.14v-24.58c0-1.31.94-2.25,2.25-2.25h18.95c1.31,0,2.25.94,2.25,2.25v24.58h28.14c1.31,0,2.25.94,2.25,2.25v18.94c0,1.31-.94,2.25-2.25,2.25h-28.14v24.2c0,1.31-.94,2.25-2.25,2.25h-18.95c-1.31,0-2.25-.94-2.25-2.25v-24.2h-28.14c-1.31,0-2.25-.94-2.25-2.25Z"/>
  </g>
</svg>